<svg version="1.1" id="Layer_1" xmlns="http://www.w3.org/2000/svg" xmlns:xlink="http://www.w3.org/1999/xlink" x="0px" y="0px" viewBox="0 0 620 185" style="enable-background:new 0 0 620 185;" xml:space="preserve">
            <style type="text/css">.st0{fill:#9860a4}</style>
            <path class="st0" d="M91.67,5.5C44.04,5.5,5.44,44.1,5.44,91.73c0,17.54,5.25,33.86,14.25,47.47l39.53-9.31l32.45,47.86v0.21
            c0,0,0,0,0,0c0,0,0,0,0,0v-0.21l32.45-47.86l39.53,9.31c9-13.62,14.25-29.93,14.25-47.47C177.9,44.1,139.29,5.5,91.67,5.5z
            M52.71,111.06c-10.92-4.47-16.7-11-16.7-18.86c0-10.27,1.48-29.96,11.41-46.43c9.96-16.52,25.28-24.9,45.51-24.9
            c1.35,0,2.46,1.1,2.46,2.46s-1.1,2.46-2.46,2.46c-38.35,0-52.01,34.31-52.01,66.42c0,12.46,22.11,19.36,44.03,19.75
            c1.04-2.84,3.73-4.73,6.76-4.73h6.2c1.35,0,2.46,1.1,2.46,2.46c0,1.36-1.1,2.46-2.46,2.46h-6.2c-1.26,0-2.29,1.03-2.29,2.29
            c0,1.26,1.03,2.29,2.29,2.29h6.2c1.26,0,2.29-1.03,2.29-2.29c0-1.35,1.1-2.46,2.46-2.46c1.35,0,2.46,1.1,2.46,2.45
            c0,3.98-3.23,7.21-7.21,7.21h-6.2c-3,0-5.76-1.95-6.78-4.77C72.77,116.65,61.33,114.59,52.71,111.06z M133.98,96
            c-2.49,19.24-19.39,39.84-40.59,39.84c-9.8,0-18.56-3.5-26.03-10.4c-0.48-0.44-0.76-1.05-0.79-1.71c-0.03-0.65,0.2-1.28,0.65-1.77
            c0.47-0.5,1.13-0.79,1.81-0.79c0.62,0,1.21,0.23,1.67,0.66c6.54,6.03,14.17,9.09,22.69,9.09c18.61,0,33.49-18.39,35.71-35.56
            c0.16-1.22,1.21-2.14,2.44-2.14c0.11,0,0.21,0.01,0.32,0.02C133.2,93.42,134.15,94.65,133.98,96z M134.06,77.15
            c-0.42,0.5-1.01,0.81-1.67,0.87c0,0,0,0,0,0c-1.47,0-2.54-0.92-2.66-2.24c-0.73-8.38-1.19-8.39-13.02-8.72
            c-1.13-0.03-2.35-0.06-3.65-0.11c-17.54-0.6-22.28-10.07-24.83-15.16c-0.28-0.56-0.75-1.5-1.1-2.05c-1.58,1.1-2.99,3.42-4.47,5.86
            c-3.06,5.03-6.86,11.3-14.52,12.51c-3.76,0.6-6.74,2.94-8.84,6.97c-3.71,7.12-3.52,17.4-1.02,22.53c0.29,0.59,0.33,1.26,0.11,1.88
            c-0.21,0.62-0.66,1.12-1.25,1.41c-0.34,0.16-0.7,0.25-1.07,0.25c-0.95,0-1.79-0.53-2.21-1.38c-3.01-6.18-3.45-18.25,1.09-26.96
            c2.82-5.41,7.12-8.72,12.43-9.56c5.41-0.86,8.43-5.82,11.09-10.2c1.98-3.26,3.84-6.32,6.59-7.82c0.78-0.43,1.56-0.64,2.31-0.64
            c0.4,0,0.79,0.06,1.18,0.18c2,0.62,2.92,2.47,4.09,4.8c2.39,4.77,5.98,11.96,20.61,12.46l3.61,0.11
            c11.79,0.33,16.67,0.47,17.78,13.21C134.68,76.01,134.48,76.65,134.06,77.15z M145.43,153.86c0,2.71-2.19,4.9-4.9,4.9h-3.36v3.36
            c0,2.71-2.19,4.9-4.9,4.9c-2.71,0-4.9-2.2-4.9-4.9v-3.36H124c-2.71,0-4.9-2.2-4.9-4.9s2.19-4.9,4.9-4.9h3.36v-3.36
            c0-2.71,2.19-4.9,4.9-4.9c2.71,0,4.9,2.2,4.9,4.9v3.36h3.36C143.24,148.96,145.43,151.16,145.43,153.86z"></path>
            <g>
                <path class="st0" d="M249.18,102.6c-0.85,0.72-2.16,1.36-3.94,1.9c-1.78,0.54-3.73,0.81-5.84,0.81c-2.53,0-4.71-0.38-6.52-1.13
                c-1.81-0.75-3.05-1.79-3.71-3.12c-0.66-1.39-1.48-3.18-2.44-5.38c-0.97-2.2-1.98-4.66-3.03-7.38c-1.06-2.72-2.14-5.6-3.26-8.64
                c-1.12-3.05-2.19-6.14-3.21-9.28c-1.03-3.14-1.99-6.22-2.9-9.23c-0.91-3.02-1.69-5.85-2.35-8.51c0.84-0.84,2.07-1.61,3.67-2.31
                c1.6-0.69,3.3-1.04,5.11-1.04c2.23,0,4.06,0.47,5.48,1.4c1.42,0.94,2.46,2.67,3.12,5.2c1.63,5.91,3.27,11.57,4.93,16.97
                c1.66,5.4,3.39,11.03,5.2,16.88h0.54c1.63-5.67,3.3-11.86,5.02-18.56c1.72-6.7,3.36-13.36,4.93-20c1.09-0.54,2.25-1,3.48-1.36
                c1.24-0.36,2.64-0.54,4.21-0.54c2.23,0,4.13,0.5,5.7,1.49c1.57,1,2.35,2.64,2.35,4.93c0,1.33-0.32,3.26-0.95,5.79
                c-0.63,2.54-1.45,5.38-2.44,8.55c-1,3.17-2.11,6.47-3.35,9.91c-1.24,3.44-2.47,6.68-3.71,9.73c-1.24,3.05-2.4,5.73-3.48,8.06
                C250.72,100.08,249.85,101.69,249.18,102.6z"></path>
                <path class="st0" d="M311.42,82.41c0,3.74-0.57,7.08-1.72,10c-1.15,2.93-2.76,5.38-4.84,7.38c-2.08,1.99-4.57,3.5-7.47,4.53
                s-6.13,1.54-9.69,1.54c-3.56,0-6.79-0.54-9.69-1.63c-2.9-1.09-5.38-2.64-7.47-4.66c-2.08-2.02-3.7-4.48-4.84-7.38
                c-1.15-2.9-1.72-6.16-1.72-9.78c0-3.56,0.57-6.79,1.72-9.68c1.15-2.9,2.76-5.35,4.84-7.38c2.08-2.02,4.57-3.57,7.47-4.66
                c2.9-1.09,6.12-1.63,9.69-1.63c3.56,0,6.79,0.56,9.69,1.67c2.9,1.12,5.39,2.69,7.47,4.71c2.08,2.02,3.7,4.48,4.84,7.38
                C310.85,75.72,311.42,78.92,311.42,82.41z M279.74,82.41c0,3.68,0.71,6.5,2.13,8.46c1.42,1.96,3.39,2.94,5.93,2.94
                c2.53,0,4.48-1,5.84-2.99c1.36-1.99,2.04-4.8,2.04-8.42s-0.69-6.41-2.08-8.37c-1.39-1.96-3.35-2.94-5.88-2.94
                c-2.53,0-4.5,0.98-5.88,2.94C280.43,76,279.74,78.79,279.74,82.41z"></path>
                <path class="st0" d="M314.05,48.2c0-2.29,0.77-4.22,2.31-5.79c1.54-1.57,3.58-2.35,6.11-2.35c2.54,0,4.57,0.78,6.11,2.35
                c1.54,1.57,2.31,3.5,2.31,5.79s-0.77,4.22-2.31,5.79c-1.54,1.57-3.57,2.35-6.11,2.35c-2.53,0-4.57-0.78-6.11-2.35
                C314.82,52.42,314.05,50.49,314.05,48.2z M330.16,104.32c-0.66,0.12-1.64,0.28-2.94,0.5c-1.3,0.21-2.61,0.32-3.94,0.32
                c-1.33,0-2.52-0.09-3.58-0.27c-1.06-0.18-1.95-0.54-2.67-1.09c-0.72-0.54-1.28-1.28-1.67-2.22c-0.39-0.94-0.59-2.16-0.59-3.67
                V61.05c0.66-0.12,1.64-0.29,2.94-0.5c1.3-0.21,2.61-0.32,3.94-0.32c1.33,0,2.52,0.09,3.58,0.27c1.05,0.18,1.95,0.54,2.67,1.09
                c0.72,0.54,1.28,1.28,1.68,2.22c0.39,0.94,0.59,2.16,0.59,3.66V104.32z"></path>
                <path class="st0" d="M360.09,71.19c-1.51,0-2.94,0.24-4.3,0.72c-1.36,0.48-2.53,1.19-3.53,2.13c-1,0.94-1.8,2.1-2.4,3.48
                c-0.6,1.39-0.91,3.02-0.91,4.89c0,3.74,1.07,6.55,3.21,8.42c2.14,1.87,4.75,2.81,7.83,2.81c1.81,0,3.38-0.21,4.71-0.63
                c1.33-0.42,2.5-0.88,3.53-1.36c1.21,0.85,2.11,1.76,2.72,2.76c0.6,1,0.91,2.19,0.91,3.58c0,2.47-1.18,4.39-3.53,5.75
                c-2.35,1.36-5.61,2.04-9.78,2.04c-3.8,0-7.24-0.56-10.32-1.67c-3.08-1.12-5.72-2.69-7.92-4.71c-2.2-2.02-3.91-4.45-5.11-7.29
                c-1.21-2.84-1.81-5.98-1.81-9.41c0-3.98,0.65-7.47,1.95-10.46c1.3-2.99,3.06-5.44,5.29-7.38c2.23-1.93,4.81-3.38,7.74-4.34
                c2.93-0.97,6.02-1.45,9.28-1.45c4.34,0,7.69,0.78,10.05,2.35c2.35,1.57,3.53,3.59,3.53,6.06c0,1.15-0.27,2.22-0.81,3.21
                s-1.18,1.85-1.9,2.58c-1.03-0.48-2.26-0.95-3.71-1.4C363.35,71.42,361.78,71.19,360.09,71.19z"></path>
                <path class="st0" d="M397.29,105.86c-3.56,0-6.87-0.5-9.91-1.49c-3.05-1-5.7-2.49-7.96-4.48c-2.26-1.99-4.04-4.5-5.34-7.51
                c-1.3-3.02-1.95-6.55-1.95-10.59c0-3.98,0.65-7.41,1.95-10.27c1.3-2.87,3-5.22,5.11-7.06c2.11-1.84,4.53-3.2,7.24-4.07
                c2.72-0.87,5.49-1.31,8.33-1.31c3.2,0,6.11,0.48,8.73,1.45c2.63,0.97,4.89,2.29,6.79,3.98s3.38,3.71,4.44,6.06
                c1.05,2.35,1.58,4.92,1.58,7.69c0,2.05-0.57,3.62-1.72,4.71c-1.15,1.09-2.75,1.78-4.8,2.08l-22.36,3.35
                c0.66,1.99,2.02,3.49,4.07,4.48c2.05,1,4.4,1.49,7.06,1.49c2.47,0,4.81-0.32,7.01-0.95c2.2-0.63,4-1.37,5.39-2.22
                c0.96,0.6,1.78,1.45,2.44,2.53c0.66,1.09,1,2.23,1,3.44c0,2.72-1.27,4.74-3.8,6.06c-1.93,1.03-4.1,1.72-6.52,2.08
                C401.66,105.68,399.4,105.86,397.29,105.86z M394.75,70.28c-1.45,0-2.7,0.24-3.76,0.72c-1.06,0.48-1.92,1.1-2.58,1.86
                c-0.66,0.75-1.16,1.6-1.49,2.53c-0.33,0.94-0.53,1.89-0.59,2.85l15.48-2.54c-0.18-1.21-0.85-2.41-1.99-3.62
                C398.68,70.89,396.99,70.28,394.75,70.28z"></path>
                <path class="st0" d="M421.12,87.57c-0.42-0.66-0.82-1.54-1.18-2.63c-0.36-1.09-0.54-2.23-0.54-3.44c0-2.23,0.51-3.85,1.54-4.84
                c1.03-1,2.35-1.49,3.98-1.49h19.4c0.36,0.66,0.74,1.54,1.13,2.63c0.39,1.09,0.59,2.23,0.59,3.44c0,2.23-0.52,3.85-1.54,4.84
                c-1.03,1-2.35,1.49-3.98,1.49H421.12z"></path>
                <g>
                    <path class="st0" d="M479.6,60.6c-4.65,0-8.21,1.42-10.68,4.25c-2.47,2.84-3.71,6.85-3.71,12.04c0,5.25,1.37,9.29,4.12,12.13
                    c2.74,2.84,6.44,4.25,11.09,4.25c2.47,0,4.57-0.33,6.29-1c1.72-0.66,3.36-1.42,4.93-2.26c1.03,0.85,1.82,1.86,2.4,3.03
                    c0.57,1.18,0.86,2.55,0.86,4.12c0,2.47-1.37,4.57-4.12,6.29c-2.75,1.72-6.92,2.58-12.54,2.58c-4.04,0-7.85-0.57-11.4-1.72
                    c-3.56-1.15-6.67-2.91-9.32-5.3c-2.66-2.38-4.75-5.4-6.29-9.05c-1.54-3.65-2.31-8.01-2.31-13.08c0-4.71,0.74-8.86,2.22-12.45
                    c1.48-3.59,3.5-6.62,6.07-9.1c2.56-2.47,5.57-4.34,9.01-5.61c3.44-1.27,7.12-1.9,11.04-1.9c5.55,0,9.85,0.91,12.9,2.72
                    c3.05,1.81,4.57,4.13,4.57,6.97c0,1.57-0.39,2.93-1.18,4.07c-0.78,1.15-1.69,2.05-2.72,2.72c-1.57-1.03-3.25-1.9-5.02-2.63
                    C484.02,60.96,481.95,60.6,479.6,60.6z"></path>
                    <path class="st0" d="M516.07,59.06c3.26,0,6.23,0.33,8.92,1c2.68,0.66,4.98,1.67,6.88,3.03s3.36,3.08,4.39,5.16
                    c1.03,2.08,1.54,4.54,1.54,7.38V95.9c0,1.57-0.44,2.85-1.31,3.85c-0.88,1-1.92,1.86-3.12,2.58c-3.92,2.35-9.45,3.53-16.56,3.53
                    c-3.2,0-6.08-0.3-8.64-0.91c-2.57-0.6-4.77-1.51-6.61-2.72c-1.84-1.21-3.26-2.75-4.26-4.62c-1-1.87-1.49-4.04-1.49-6.52
                    c0-4.16,1.24-7.36,3.71-9.59c2.47-2.23,6.3-3.62,11.49-4.16l11.86-1.27v-0.63c0-1.75-0.77-3-2.31-3.76
                    c-1.54-0.75-3.76-1.13-6.65-1.13c-2.29,0-4.53,0.24-6.7,0.72s-4.13,1.09-5.88,1.81c-0.78-0.54-1.45-1.37-1.99-2.49
                    c-0.54-1.12-0.81-2.28-0.81-3.49c0-1.57,0.37-2.82,1.13-3.75c0.75-0.94,1.91-1.73,3.48-2.4c1.75-0.66,3.82-1.15,6.2-1.45
                    C511.71,59.21,513.95,59.06,516.07,59.06z M516.79,94.63c1.03,0,2.16-0.1,3.39-0.32c1.24-0.21,2.16-0.5,2.76-0.86v-7.24
                    l-6.52,0.54c-1.69,0.12-3.08,0.48-4.16,1.09c-1.09,0.6-1.63,1.51-1.63,2.72c0,1.21,0.47,2.19,1.4,2.94
                    C512.97,94.26,514.56,94.63,516.79,94.63z"></path>
                    <path class="st0" d="M556.51,104.32c-0.6,0.18-1.55,0.36-2.85,0.54c-1.3,0.18-2.64,0.27-4.03,0.27c-1.33,0-2.52-0.09-3.57-0.27
                    c-1.06-0.18-1.95-0.54-2.67-1.09c-0.72-0.54-1.28-1.28-1.67-2.22c-0.39-0.94-0.59-2.16-0.59-3.67V70.74
                    c0-1.39,0.26-2.58,0.77-3.57c0.51-1,1.25-1.88,2.22-2.67c0.97-0.78,2.16-1.49,3.57-2.13c1.42-0.63,2.94-1.19,4.57-1.67
                    c1.63-0.48,3.32-0.86,5.07-1.13c1.75-0.27,3.5-0.41,5.25-0.41c2.9,0,5.19,0.56,6.88,1.67c1.69,1.12,2.54,2.94,2.54,5.48
                    c0,0.85-0.12,1.67-0.36,2.49c-0.24,0.81-0.54,1.55-0.91,2.22c-1.27,0-2.57,0.06-3.89,0.18c-1.33,0.12-2.63,0.3-3.89,0.54
                    c-1.27,0.24-2.46,0.5-3.58,0.77c-1.12,0.27-2.07,0.59-2.85,0.95V104.32z"></path>
                    <path class="st0" d="M592.99,105.86c-3.56,0-6.86-0.5-9.91-1.49c-3.05-1-5.7-2.49-7.96-4.48c-2.26-1.99-4.04-4.5-5.34-7.51
                    c-1.3-3.02-1.95-6.55-1.95-10.59c0-3.98,0.65-7.41,1.95-10.27s3-5.22,5.11-7.06c2.11-1.84,4.53-3.2,7.24-4.07
                    c2.72-0.87,5.49-1.31,8.33-1.31c3.2,0,6.11,0.48,8.73,1.45c2.63,0.97,4.89,2.29,6.79,3.98c1.9,1.69,3.38,3.71,4.44,6.06
                    c1.06,2.35,1.58,4.92,1.58,7.69c0,2.05-0.57,3.62-1.72,4.71c-1.15,1.09-2.75,1.78-4.8,2.08l-22.36,3.35
                    c0.66,1.99,2.02,3.49,4.07,4.48c2.05,1,4.4,1.49,7.06,1.49c2.47,0,4.81-0.32,7.01-0.95c2.2-0.63,4-1.37,5.38-2.22
                    c0.97,0.6,1.78,1.45,2.44,2.53c0.66,1.09,1,2.23,1,3.44c0,2.72-1.27,4.74-3.8,6.06c-1.93,1.03-4.1,1.72-6.52,2.08
                    C597.37,105.68,595.1,105.86,592.99,105.86z M590.46,70.28c-1.45,0-2.7,0.24-3.76,0.72c-1.06,0.48-1.92,1.1-2.58,1.86
                    c-0.66,0.75-1.16,1.6-1.49,2.53c-0.33,0.94-0.53,1.89-0.59,2.85l15.48-2.54c-0.18-1.21-0.85-2.41-1.99-3.62
                    C594.38,70.89,592.69,70.28,590.46,70.28z"></path>
                </g>
            </g>
            <g>
                <path class="st0" d="M222.3,145.18c-0.25,0.07-0.64,0.14-1.17,0.2c-0.53,0.07-1.06,0.1-1.58,0.1c-0.52,0-0.98-0.04-1.38-0.12
                c-0.4-0.08-0.73-0.22-1-0.42c-0.27-0.2-0.48-0.49-0.61-0.85s-0.2-0.84-0.2-1.43v-16c0-0.48,0.13-0.84,0.39-1.1
                c0.26-0.26,0.62-0.47,1.07-0.63c0.77-0.27,1.65-0.47,2.63-0.59s1.98-0.19,2.97-0.19c3.13,0,5.52,0.67,7.17,2
                c1.65,1.34,2.48,3.15,2.48,5.44c0,1.11-0.18,2.11-0.53,3.01c-0.35,0.9-0.87,1.66-1.56,2.31c-0.69,0.64-1.56,1.14-2.62,1.49
                c-1.05,0.35-2.27,0.53-3.65,0.53h-2.41V145.18z M224.07,134.27c0.95,0,1.68-0.22,2.19-0.66c0.51-0.44,0.76-1.12,0.76-2.02
                c0-0.86-0.27-1.52-0.8-1.99c-0.53-0.46-1.31-0.7-2.33-0.7c-0.36,0-0.66,0.01-0.9,0.02c-0.24,0.01-0.48,0.04-0.73,0.09v5.26H224.07z
                "></path>
                <path class="st0" d="M243.48,145.86c-1.34,0-2.58-0.19-3.72-0.56c-1.14-0.37-2.14-0.93-2.99-1.68c-0.85-0.75-1.52-1.69-2-2.82
                c-0.49-1.13-0.73-2.46-0.73-3.98c0-1.5,0.24-2.78,0.73-3.86s1.13-1.96,1.92-2.65c0.79-0.69,1.7-1.2,2.72-1.53
                c1.02-0.33,2.06-0.49,3.13-0.49c1.2,0,2.29,0.18,3.28,0.54c0.99,0.36,1.84,0.86,2.55,1.5c0.71,0.63,1.27,1.39,1.66,2.28
                c0.4,0.88,0.59,1.85,0.59,2.89c0,0.77-0.22,1.36-0.65,1.77c-0.43,0.41-1.03,0.67-1.8,0.78l-8.39,1.26
                c0.25,0.75,0.76,1.31,1.53,1.68s1.65,0.56,2.65,0.56c0.93,0,1.81-0.12,2.63-0.36c0.83-0.24,1.5-0.51,2.02-0.83
                c0.36,0.23,0.67,0.54,0.92,0.95c0.25,0.41,0.37,0.84,0.37,1.29c0,1.02-0.48,1.78-1.43,2.28c-0.73,0.39-1.54,0.65-2.45,0.78
                C245.12,145.79,244.27,145.86,243.48,145.86z M242.53,132.51c-0.54,0-1.01,0.09-1.41,0.27c-0.4,0.18-0.72,0.41-0.97,0.7
                c-0.25,0.28-0.44,0.6-0.56,0.95c-0.12,0.35-0.2,0.71-0.22,1.07l5.81-0.95c-0.07-0.45-0.32-0.91-0.75-1.36
                S243.36,132.51,242.53,132.51z"></path>
                <path class="st0" d="M259.26,128.3c1.22,0,2.34,0.12,3.35,0.37c1.01,0.25,1.87,0.63,2.58,1.14c0.71,0.51,1.26,1.15,1.65,1.94
                c0.38,0.78,0.58,1.7,0.58,2.77v7.61c0,0.59-0.16,1.07-0.49,1.44c-0.33,0.37-0.72,0.7-1.17,0.97c-1.47,0.88-3.54,1.33-6.22,1.33
                c-1.2,0-2.28-0.11-3.24-0.34c-0.96-0.23-1.79-0.57-2.48-1.02c-0.69-0.45-1.22-1.03-1.6-1.73c-0.37-0.7-0.56-1.51-0.56-2.44
                c0-1.56,0.46-2.76,1.39-3.6c0.93-0.84,2.37-1.36,4.31-1.56l4.45-0.48v-0.24c0-0.66-0.29-1.13-0.87-1.41
                c-0.58-0.28-1.41-0.43-2.5-0.43c-0.86,0-1.7,0.09-2.51,0.27c-0.82,0.18-1.55,0.41-2.21,0.68c-0.29-0.2-0.54-0.51-0.75-0.93
                c-0.2-0.42-0.31-0.85-0.31-1.31c0-0.59,0.14-1.06,0.43-1.41c0.28-0.35,0.72-0.65,1.31-0.9c0.66-0.25,1.43-0.43,2.33-0.54
                C257.62,128.35,258.46,128.3,259.26,128.3z M259.53,141.65c0.38,0,0.81-0.04,1.27-0.12s0.81-0.19,1.04-0.32v-2.72l-2.45,0.2
                c-0.63,0.04-1.15,0.18-1.56,0.41c-0.41,0.23-0.61,0.57-0.61,1.02s0.17,0.82,0.53,1.1C258.1,141.51,258.69,141.65,259.53,141.65z"></path>
                <path class="st0" d="M279.32,132.85c-0.57,0-1.1,0.09-1.61,0.27c-0.51,0.18-0.95,0.45-1.32,0.8c-0.37,0.35-0.67,0.79-0.9,1.31
                c-0.23,0.52-0.34,1.13-0.34,1.84c0,1.4,0.4,2.46,1.21,3.16c0.8,0.7,1.78,1.05,2.94,1.05c0.68,0,1.27-0.08,1.77-0.24
                c0.5-0.16,0.94-0.33,1.33-0.51c0.45,0.32,0.79,0.66,1.02,1.04c0.23,0.37,0.34,0.82,0.34,1.34c0,0.93-0.44,1.65-1.33,2.16
                s-2.11,0.76-3.67,0.76c-1.43,0-2.72-0.21-3.87-0.63c-1.15-0.42-2.15-1.01-2.97-1.77c-0.83-0.76-1.47-1.67-1.92-2.73
                c-0.45-1.06-0.68-2.24-0.68-3.53c0-1.5,0.24-2.8,0.73-3.92c0.49-1.12,1.15-2.05,1.99-2.77c0.84-0.72,1.81-1.27,2.9-1.63
                s2.26-0.54,3.48-0.54c1.63,0,2.89,0.29,3.77,0.88c0.88,0.59,1.33,1.35,1.33,2.28c0,0.43-0.1,0.83-0.31,1.21
                c-0.2,0.37-0.44,0.7-0.71,0.97c-0.38-0.18-0.85-0.36-1.39-0.53C280.54,132.93,279.95,132.85,279.32,132.85z"></path>
                <path class="st0" d="M294.15,145.86c-1.34,0-2.58-0.19-3.72-0.56c-1.14-0.37-2.14-0.93-2.99-1.68c-0.85-0.75-1.52-1.69-2-2.82
                c-0.49-1.13-0.73-2.46-0.73-3.98c0-1.5,0.24-2.78,0.73-3.86c0.49-1.08,1.13-1.96,1.92-2.65c0.79-0.69,1.7-1.2,2.72-1.53
                c1.02-0.33,2.06-0.49,3.13-0.49c1.2,0,2.29,0.18,3.28,0.54c0.99,0.36,1.84,0.86,2.55,1.5c0.71,0.63,1.27,1.39,1.66,2.28
                c0.4,0.88,0.59,1.85,0.59,2.89c0,0.77-0.22,1.36-0.65,1.77c-0.43,0.41-1.03,0.67-1.8,0.78l-8.39,1.26
                c0.25,0.75,0.76,1.31,1.53,1.68c0.77,0.37,1.65,0.56,2.65,0.56c0.93,0,1.81-0.12,2.63-0.36c0.83-0.24,1.5-0.51,2.02-0.83
                c0.36,0.23,0.67,0.54,0.92,0.95c0.25,0.41,0.37,0.84,0.37,1.29c0,1.02-0.48,1.78-1.43,2.28c-0.73,0.39-1.54,0.65-2.45,0.78
                C295.79,145.79,294.94,145.86,294.15,145.86z M293.2,132.51c-0.54,0-1.01,0.09-1.41,0.27c-0.4,0.18-0.72,0.41-0.97,0.7
                c-0.25,0.28-0.44,0.6-0.56,0.95c-0.12,0.35-0.2,0.71-0.22,1.07l5.81-0.95c-0.07-0.45-0.32-0.91-0.75-1.36
                C294.67,132.73,294.03,132.51,293.2,132.51z"></path>
                <path class="st0" d="M326.25,137.06c0,1.4-0.22,2.66-0.65,3.75c-0.43,1.1-1.04,2.02-1.82,2.77c-0.78,0.75-1.72,1.32-2.8,1.7
                c-1.09,0.38-2.3,0.58-3.63,0.58c-1.34,0-2.55-0.2-3.64-0.61c-1.09-0.41-2.02-0.99-2.8-1.75c-0.78-0.76-1.39-1.68-1.82-2.77
                c-0.43-1.09-0.65-2.31-0.65-3.67c0-1.34,0.21-2.55,0.65-3.64c0.43-1.09,1.04-2.01,1.82-2.77c0.78-0.76,1.72-1.34,2.8-1.75
                c1.09-0.41,2.3-0.61,3.64-0.61c1.34,0,2.55,0.21,3.63,0.63c1.09,0.42,2.02,1.01,2.8,1.77c0.78,0.76,1.39,1.68,1.82,2.77
                C326.03,134.55,326.25,135.75,326.25,137.06z M314.36,137.06c0,1.38,0.27,2.44,0.8,3.18c0.53,0.74,1.27,1.1,2.22,1.1
                c0.95,0,1.68-0.37,2.19-1.12c0.51-0.75,0.76-1.8,0.76-3.16s-0.26-2.41-0.78-3.14c-0.52-0.74-1.26-1.1-2.21-1.1
                c-0.95,0-1.69,0.37-2.21,1.1C314.62,134.66,314.36,135.7,314.36,137.06z"></path>
                <path class="st0" d="M328.36,128.81c0-1.16,0.2-2.15,0.59-2.97c0.4-0.83,0.93-1.51,1.61-2.04c0.68-0.53,1.48-0.92,2.39-1.17
                c0.92-0.25,1.9-0.38,2.94-0.38c1.68,0,2.91,0.22,3.7,0.66c0.79,0.44,1.19,1.19,1.19,2.26c0,0.45-0.1,0.86-0.29,1.22
                c-0.19,0.36-0.4,0.63-0.63,0.81c-0.43-0.11-0.88-0.21-1.34-0.29c-0.46-0.08-1-0.12-1.61-0.12c-0.97,0-1.73,0.17-2.28,0.49
                c-0.54,0.33-0.82,0.9-0.82,1.72v1.09h5.57c0.14,0.25,0.27,0.56,0.39,0.93c0.12,0.37,0.19,0.79,0.19,1.24
                c0,0.79-0.18,1.37-0.53,1.72c-0.35,0.35-0.82,0.53-1.41,0.53h-3.91v10.77c-0.23,0.07-0.58,0.14-1.07,0.2
                c-0.49,0.07-0.99,0.1-1.51,0.1c-0.5,0-0.95-0.03-1.34-0.1c-0.4-0.07-0.73-0.2-1-0.41c-0.27-0.2-0.48-0.48-0.63-0.83
                c-0.15-0.35-0.22-0.81-0.22-1.38V128.81z"></path>
                <path class="st0" d="M355.91,128.3c0.93,0,1.84,0.13,2.74,0.39c0.89,0.26,1.67,0.65,2.33,1.17c0.68-0.45,1.44-0.83,2.29-1.12
                c0.85-0.29,1.87-0.44,3.07-0.44c0.86,0,1.7,0.11,2.53,0.34c0.83,0.23,1.56,0.58,2.21,1.07c0.65,0.49,1.16,1.13,1.55,1.94
                c0.39,0.8,0.58,1.78,0.58,2.94v10.7c-0.23,0.07-0.58,0.14-1.07,0.2c-0.49,0.07-0.99,0.1-1.51,0.1c-0.5,0-0.95-0.03-1.34-0.1
                c-0.4-0.07-0.73-0.2-1-0.41c-0.27-0.2-0.48-0.48-0.63-0.83c-0.15-0.35-0.22-0.81-0.22-1.38v-8.12c0-0.68-0.19-1.17-0.58-1.48
                c-0.39-0.31-0.91-0.46-1.56-0.46c-0.32,0-0.66,0.07-1.02,0.22c-0.36,0.15-0.63,0.3-0.82,0.46c0.02,0.09,0.03,0.17,0.03,0.25
                s0,0.15,0,0.22v11.31c-0.25,0.07-0.62,0.14-1.1,0.2c-0.49,0.07-0.98,0.1-1.48,0.1c-0.5,0-0.95-0.03-1.34-0.1
                c-0.4-0.07-0.73-0.2-1-0.41s-0.48-0.48-0.63-0.83c-0.15-0.35-0.22-0.81-0.22-1.38v-8.12c0-0.68-0.21-1.17-0.63-1.48
                c-0.42-0.31-0.92-0.46-1.51-0.46c-0.41,0-0.76,0.06-1.05,0.19c-0.3,0.12-0.54,0.24-0.75,0.36v11.92c-0.23,0.07-0.58,0.14-1.07,0.2
                c-0.49,0.07-0.99,0.1-1.51,0.1c-0.5,0-0.95-0.03-1.34-0.1c-0.4-0.07-0.73-0.2-1-0.41c-0.27-0.2-0.48-0.48-0.63-0.83
                c-0.15-0.35-0.22-0.81-0.22-1.38v-10.26c0-0.61,0.13-1.1,0.39-1.46c0.26-0.36,0.62-0.7,1.07-1.02c0.77-0.54,1.73-0.98,2.87-1.32
                C353.47,128.47,354.67,128.3,355.91,128.3z"></path>
                <path class="st0" d="M375.75,124.22c0-0.86,0.29-1.58,0.87-2.17c0.58-0.59,1.34-0.88,2.29-0.88c0.95,0,1.71,0.3,2.29,0.88
                c0.58,0.59,0.87,1.31,0.87,2.17c0,0.86-0.29,1.59-0.87,2.18c-0.58,0.59-1.34,0.88-2.29,0.88c-0.95,0-1.72-0.29-2.29-0.88
                C376.04,125.81,375.75,125.08,375.75,124.22z M381.8,145.28c-0.25,0.04-0.62,0.11-1.1,0.19c-0.49,0.08-0.98,0.12-1.48,0.12
                s-0.95-0.03-1.34-0.1c-0.4-0.07-0.73-0.2-1-0.41c-0.27-0.2-0.48-0.48-0.63-0.83c-0.15-0.35-0.22-0.81-0.22-1.38v-13.83
                c0.25-0.04,0.62-0.11,1.1-0.19c0.49-0.08,0.98-0.12,1.48-0.12s0.95,0.04,1.34,0.1c0.4,0.07,0.73,0.2,1,0.41
                c0.27,0.2,0.48,0.48,0.63,0.83c0.15,0.35,0.22,0.81,0.22,1.37V145.28z"></path>
                <path class="st0" d="M395.11,134.85c0-0.7-0.2-1.22-0.59-1.55c-0.4-0.33-0.93-0.49-1.61-0.49c-0.45,0-0.9,0.06-1.34,0.17
                c-0.44,0.12-0.82,0.28-1.14,0.51v11.79c-0.23,0.07-0.58,0.14-1.07,0.2c-0.49,0.07-0.99,0.1-1.51,0.1c-0.5,0-0.95-0.03-1.34-0.1
                c-0.4-0.07-0.73-0.2-1-0.41s-0.48-0.48-0.63-0.83c-0.15-0.35-0.22-0.81-0.22-1.38v-10.19c0-0.61,0.13-1.11,0.39-1.5
                c0.26-0.38,0.62-0.74,1.07-1.05c0.77-0.54,1.74-0.98,2.91-1.32c1.17-0.34,2.46-0.51,3.89-0.51c2.56,0,4.53,0.56,5.91,1.68
                c1.38,1.12,2.07,2.68,2.07,4.67v10.63c-0.23,0.07-0.58,0.14-1.07,0.2c-0.49,0.07-0.99,0.1-1.51,0.1c-0.5,0-0.95-0.03-1.34-0.1
                c-0.4-0.07-0.73-0.2-1-0.41c-0.27-0.2-0.48-0.48-0.63-0.83c-0.15-0.35-0.22-0.81-0.22-1.38V134.85z"></path>
                <path class="st0" d="M402.94,137.06c0-1.5,0.23-2.79,0.68-3.89c0.45-1.1,1.08-2.01,1.89-2.73c0.8-0.72,1.74-1.26,2.82-1.61
                c1.08-0.35,2.23-0.53,3.48-0.53c0.45,0,0.9,0.04,1.32,0.12c0.43,0.08,0.78,0.17,1.05,0.29v-5.5c0.23-0.07,0.59-0.14,1.09-0.22
                c0.5-0.08,1.01-0.12,1.53-0.12c0.5,0,0.95,0.03,1.34,0.1c0.4,0.07,0.73,0.2,1,0.41c0.27,0.2,0.48,0.48,0.61,0.83
                c0.14,0.35,0.2,0.81,0.2,1.38v16.1c0,1.06-0.5,1.92-1.49,2.55c-0.66,0.43-1.51,0.81-2.55,1.14c-1.04,0.33-2.24,0.49-3.6,0.49
                c-1.47,0-2.79-0.2-3.96-0.61c-1.17-0.41-2.15-1-2.96-1.77c-0.8-0.77-1.42-1.69-1.84-2.77
                C403.15,139.64,402.94,138.42,402.94,137.06z M412.59,132.81c-1.22,0-2.16,0.35-2.82,1.05c-0.66,0.7-0.99,1.77-0.99,3.19
                c0,1.4,0.31,2.46,0.92,3.18c0.61,0.71,1.5,1.07,2.65,1.07c0.41,0,0.77-0.06,1.1-0.19c0.33-0.12,0.58-0.27,0.77-0.42v-7.48
                C413.76,132.95,413.22,132.81,412.59,132.81z"></path>
                <path class="st0" d="M428.72,128.81c0-1.16,0.2-2.15,0.59-2.97c0.4-0.83,0.93-1.51,1.61-2.04c0.68-0.53,1.48-0.92,2.4-1.17
                c0.92-0.25,1.9-0.38,2.94-0.38c1.68,0,2.91,0.22,3.7,0.66c0.79,0.44,1.19,1.19,1.19,2.26c0,0.45-0.1,0.86-0.29,1.22
                c-0.19,0.36-0.4,0.63-0.63,0.81c-0.43-0.11-0.88-0.21-1.34-0.29c-0.46-0.08-1-0.12-1.61-0.12c-0.97,0-1.73,0.17-2.28,0.49
                c-0.54,0.33-0.82,0.9-0.82,1.72v1.09h5.57c0.14,0.25,0.27,0.56,0.39,0.93c0.12,0.37,0.19,0.79,0.19,1.24
                c0,0.79-0.18,1.37-0.53,1.72c-0.35,0.35-0.82,0.53-1.41,0.53h-3.91v10.77c-0.23,0.07-0.58,0.14-1.07,0.2
                c-0.49,0.07-0.99,0.1-1.51,0.1c-0.5,0-0.95-0.03-1.34-0.1c-0.4-0.07-0.73-0.2-1-0.41c-0.27-0.2-0.48-0.48-0.63-0.83
                c-0.15-0.35-0.22-0.81-0.22-1.38V128.81z"></path>
                <path class="st0" d="M459.16,137.06c0,1.4-0.22,2.66-0.65,3.75c-0.43,1.1-1.03,2.02-1.82,2.77c-0.78,0.75-1.72,1.32-2.8,1.7
                c-1.09,0.38-2.3,0.58-3.64,0.58c-1.34,0-2.55-0.2-3.63-0.61c-1.09-0.41-2.02-0.99-2.8-1.75c-0.78-0.76-1.39-1.68-1.82-2.77
                c-0.43-1.09-0.64-2.31-0.64-3.67c0-1.34,0.22-2.55,0.64-3.64c0.43-1.09,1.04-2.01,1.82-2.77c0.78-0.76,1.71-1.34,2.8-1.75
                c1.09-0.41,2.3-0.61,3.63-0.61c1.34,0,2.55,0.21,3.64,0.63c1.09,0.42,2.02,1.01,2.8,1.77c0.78,0.76,1.39,1.68,1.82,2.77
                C458.94,134.55,459.16,135.75,459.16,137.06z M447.27,137.06c0,1.38,0.27,2.44,0.8,3.18c0.53,0.74,1.27,1.1,2.23,1.1
                c0.95,0,1.68-0.37,2.19-1.12c0.51-0.75,0.77-1.8,0.77-3.16s-0.26-2.41-0.78-3.14c-0.52-0.74-1.26-1.1-2.21-1.1
                c-0.95,0-1.69,0.37-2.21,1.1C447.53,134.66,447.27,135.7,447.27,137.06z"></path>
                <path class="st0" d="M466.96,145.28c-0.23,0.07-0.58,0.14-1.07,0.2c-0.49,0.07-0.99,0.1-1.51,0.1c-0.5,0-0.95-0.03-1.34-0.1
                c-0.4-0.07-0.73-0.2-1-0.41c-0.27-0.2-0.48-0.48-0.63-0.83c-0.15-0.35-0.22-0.81-0.22-1.38v-10.19c0-0.52,0.1-0.97,0.29-1.34
                c0.19-0.37,0.47-0.7,0.83-1c0.36-0.29,0.81-0.56,1.34-0.8c0.53-0.24,1.1-0.45,1.71-0.63c0.61-0.18,1.25-0.32,1.9-0.43
                c0.66-0.1,1.31-0.15,1.97-0.15c1.09,0,1.95,0.21,2.58,0.63c0.63,0.42,0.95,1.11,0.95,2.06c0,0.32-0.04,0.63-0.14,0.93
                c-0.09,0.3-0.2,0.58-0.34,0.83c-0.48,0-0.96,0.02-1.46,0.07c-0.5,0.05-0.99,0.11-1.46,0.2c-0.48,0.09-0.92,0.19-1.34,0.29
                c-0.42,0.1-0.78,0.22-1.07,0.36V145.28z"></path>
                <path class="st0" d="M487.03,128.3c1.22,0,2.34,0.12,3.35,0.37c1.01,0.25,1.87,0.63,2.58,1.14c0.71,0.51,1.26,1.15,1.65,1.94
                c0.38,0.78,0.58,1.7,0.58,2.77v7.61c0,0.59-0.17,1.07-0.49,1.44c-0.33,0.37-0.72,0.7-1.17,0.97c-1.47,0.88-3.55,1.33-6.22,1.33
                c-1.2,0-2.28-0.11-3.25-0.34c-0.96-0.23-1.79-0.57-2.48-1.02s-1.22-1.03-1.6-1.73c-0.37-0.7-0.56-1.51-0.56-2.44
                c0-1.56,0.46-2.76,1.39-3.6c0.93-0.84,2.37-1.36,4.31-1.56l4.45-0.48v-0.24c0-0.66-0.29-1.13-0.87-1.41s-1.41-0.43-2.5-0.43
                c-0.86,0-1.7,0.09-2.52,0.27c-0.82,0.18-1.55,0.41-2.21,0.68c-0.3-0.2-0.54-0.51-0.75-0.93c-0.2-0.42-0.3-0.85-0.3-1.31
                c0-0.59,0.14-1.06,0.42-1.41c0.28-0.35,0.72-0.65,1.31-0.9c0.66-0.25,1.43-0.43,2.33-0.54C485.4,128.35,486.24,128.3,487.03,128.3z
                M487.31,141.65c0.38,0,0.81-0.04,1.27-0.12c0.46-0.08,0.81-0.19,1.03-0.32v-2.72l-2.44,0.2c-0.64,0.04-1.16,0.18-1.56,0.41
                c-0.41,0.23-0.61,0.57-0.61,1.02s0.18,0.82,0.53,1.1C485.87,141.51,486.47,141.65,487.31,141.65z"></path>
                <path class="st0" d="M503.8,145.28c-0.25,0.04-0.62,0.11-1.11,0.19c-0.49,0.08-0.98,0.12-1.48,0.12s-0.95-0.03-1.34-0.1
                c-0.4-0.07-0.73-0.2-1-0.41c-0.27-0.2-0.48-0.48-0.63-0.83c-0.15-0.35-0.22-0.81-0.22-1.38v-19.7c0.25-0.04,0.62-0.11,1.1-0.19
                c0.49-0.08,0.98-0.12,1.48-0.12c0.5,0,0.95,0.03,1.34,0.1c0.4,0.07,0.73,0.2,1,0.41c0.27,0.2,0.48,0.48,0.63,0.83
                s0.22,0.81,0.22,1.38V145.28z"></path>
                <path class="st0" d="M512.56,145.28c-0.25,0.04-0.62,0.11-1.11,0.19c-0.49,0.08-0.98,0.12-1.48,0.12s-0.95-0.03-1.34-0.1
                c-0.4-0.07-0.73-0.2-1-0.41c-0.27-0.2-0.48-0.48-0.63-0.83c-0.15-0.35-0.22-0.81-0.22-1.38v-19.7c0.25-0.04,0.62-0.11,1.1-0.19
                c0.49-0.08,0.98-0.12,1.48-0.12c0.5,0,0.95,0.03,1.34,0.1c0.4,0.07,0.73,0.2,1,0.41c0.27,0.2,0.48,0.48,0.63,0.83
                c0.15,0.35,0.22,0.81,0.22,1.38V145.28z"></path>
                <path class="st0" d="M514.91,142.57c0-0.95,0.3-1.74,0.88-2.38c0.59-0.64,1.39-0.95,2.41-0.95c1.02,0,1.82,0.32,2.41,0.95
                c0.59,0.63,0.88,1.43,0.88,2.38s-0.29,1.74-0.88,2.38c-0.59,0.63-1.39,0.95-2.41,0.95c-1.02,0-1.82-0.32-2.41-0.95
                C515.21,144.31,514.91,143.52,514.91,142.57z"></path>
            </g>
        </svg>